<?xml version="1.0" encoding="UTF-8"?>
<!DOCTYPE svg PUBLIC "-//W3C//DTD SVG 1.1//EN" "http://www.w3.org/Graphics/SVG/1.1/DTD/svg11.dtd">
<svg xmlns="http://www.w3.org/2000/svg" version="1.1" width="512px" height="512px" style="shape-rendering:geometricPrecision; text-rendering:geometricPrecision; image-rendering:optimizeQuality; fill-rule:evenodd; clip-rule:evenodd" xmlns:xlink="http://www.w3.org/1999/xlink">
<g><path style="opacity:0.995" fill="#e2b476" d="M 165.5,-0.5 C 169.5,-0.5 173.5,-0.5 177.5,-0.5C 179.076,0.142944 180.41,1.14294 181.5,2.5C 174.404,14.2622 167.738,26.2622 161.5,38.5C 150.721,32.3836 139.721,26.717 128.5,21.5C 140.833,14.1667 153.167,6.83333 165.5,-0.5 Z"/></g>
<g><path style="opacity:0.994" fill="#e5bb84" d="M 181.5,2.5 C 188.332,5.41244 194.666,9.07911 200.5,13.5C 193.845,25.4728 187.179,37.4728 180.5,49.5C 173.668,46.5876 167.334,42.9209 161.5,38.5C 167.738,26.2622 174.404,14.2622 181.5,2.5 Z"/></g>
<g><path style="opacity:0.994" fill="#e7c290" d="M 200.5,13.5 C 207.332,16.4124 213.666,20.0791 219.5,24.5C 211.494,35.8358 204.494,47.8358 198.5,60.5C 192.13,57.321 186.13,53.6543 180.5,49.5C 187.179,37.4728 193.845,25.4728 200.5,13.5 Z"/></g>
<g><path style="opacity:0.988" fill="#eac99e" d="M 219.5,24.5 C 232.56,30.4426 244.727,37.7759 256,46.5C 256.49,47.7932 256.657,49.1266 256.5,50.5C 255.609,52.2905 254.609,54.1239 253.5,56C 243.129,61.8497 232.796,67.683 222.5,73.5C 214.191,69.6796 206.191,65.3463 198.5,60.5C 204.494,47.8358 211.494,35.8358 219.5,24.5 Z"/></g>
<g><path style="opacity:0.991" fill="#dea862" d="M 116.5,28.5 C 116.937,30.0744 117.937,31.2411 119.5,32C 148.33,48.2473 176.997,64.7473 205.5,81.5C 206.711,82.2739 206.711,83.1072 205.5,84C 202.644,85.2587 199.977,86.7587 197.5,88.5C 185.196,80.6766 172.529,73.3433 159.5,66.5C 153.366,62.5959 147.032,58.9292 140.5,55.5C 135.72,52.2706 130.72,49.2706 125.5,46.5C 123.833,45.1667 122.167,45.1667 120.5,46.5C 114.476,57.2212 108.476,67.8879 102.5,78.5C 94.3891,74.2282 86.3891,69.7282 78.5,65C 76.5981,63.2703 74.9314,61.437 73.5,59.5C 73.22,56.7276 73.8866,54.2276 75.5,52C 88.8955,43.6374 102.562,35.804 116.5,28.5 Z"/></g>
<g><path style="opacity:1" fill="#e1b171" d="M 140.5,55.5 C 133.109,65.9292 126.442,76.9292 120.5,88.5C 114.17,85.6704 108.17,82.337 102.5,78.5C 108.476,67.8879 114.476,57.2212 120.5,46.5C 122.167,45.1667 123.833,45.1667 125.5,46.5C 130.72,49.2706 135.72,52.2706 140.5,55.5 Z"/></g>
<g><path style="opacity:0.993" fill="#dda761" d="M 128.5,21.5 C 139.721,26.717 150.721,32.3836 161.5,38.5C 167.334,42.9209 173.668,46.5876 180.5,49.5C 186.13,53.6543 192.13,57.321 198.5,60.5C 206.191,65.3463 214.191,69.6796 222.5,73.5C 232.796,67.683 243.129,61.8497 253.5,56C 254.609,54.1239 255.609,52.2905 256.5,50.5C 256.5,80.1667 256.5,109.833 256.5,139.5C 246.206,133.437 235.706,127.77 225,122.5C 210.593,129.617 196.759,137.617 183.5,146.5C 180.852,146.738 179.018,148.072 178,150.5C 176.616,160.681 179.449,169.514 186.5,177C 195.34,182.363 204.007,187.863 212.5,193.5C 197.194,202.155 181.861,210.821 166.5,219.5C 167.16,181.818 166.494,144.485 164.5,107.5C 175.301,100.929 186.301,94.5958 197.5,88.5C 197.334,95.175 197.5,101.842 198,108.5C 205.751,103.707 213.584,99.0408 221.5,94.5C 222.833,87.8333 222.833,81.1667 221.5,74.5C 218.206,77.1546 214.539,78.6546 210.5,79C 180.353,61.672 150.353,44.172 120.5,26.5C 122.794,24.347 125.46,22.6803 128.5,21.5 Z"/></g>
<g><path style="opacity:0.993" fill="#cb8241" d="M 73.5,59.5 C 74.9314,61.437 76.5981,63.2703 78.5,65C 86.3891,69.7282 94.3891,74.2282 102.5,78.5C 108.17,82.337 114.17,85.6704 120.5,88.5C 126.799,92.9885 133.466,96.9885 140.5,100.5C 142.537,101.846 144.537,103.18 146.5,104.5C 146.5,142.167 146.5,179.833 146.5,217.5C 123.527,204.345 100.527,191.178 77.5,178C 76.2986,177.097 75.4652,175.931 75,174.5C 74.8195,171.305 74.3195,168.305 73.5,165.5C 73.5,130.167 73.5,94.8333 73.5,59.5 Z"/></g>
<g><path style="opacity:1" fill="#e3b77d" d="M 140.5,55.5 C 147.032,58.9292 153.366,62.5959 159.5,66.5C 153.857,74.4338 148.691,82.7672 144,91.5C 142.982,94.5879 141.815,97.5879 140.5,100.5C 133.466,96.9885 126.799,92.9885 120.5,88.5C 126.442,76.9292 133.109,65.9292 140.5,55.5 Z"/></g>
<g><path style="opacity:1" fill="#e6c08c" d="M 159.5,66.5 C 172.529,73.3433 185.196,80.6766 197.5,88.5C 186.301,94.5958 175.301,100.929 164.5,107.5C 161.873,108.092 159.206,108.425 156.5,108.5C 152.948,107.724 149.614,106.391 146.5,104.5C 144.537,103.18 142.537,101.846 140.5,100.5C 141.815,97.5879 142.982,94.5879 144,91.5C 148.691,82.7672 153.857,74.4338 159.5,66.5 Z"/></g>
<g><path style="opacity:1" fill="#cc8342" d="M 120.5,26.5 C 150.353,44.172 180.353,61.672 210.5,79C 214.539,78.6546 218.206,77.1546 221.5,74.5C 222.833,81.1667 222.833,87.8333 221.5,94.5C 213.584,99.0408 205.751,103.707 198,108.5C 197.5,101.842 197.334,95.175 197.5,88.5C 199.977,86.7587 202.644,85.2587 205.5,84C 206.711,83.1072 206.711,82.2739 205.5,81.5C 176.997,64.7473 148.33,48.2473 119.5,32C 117.937,31.2411 116.937,30.0744 116.5,28.5C 117.514,27.3263 118.847,26.6596 120.5,26.5 Z"/></g>
<g><path style="opacity:1" fill="#d28f4c" d="M 146.5,104.5 C 149.614,106.391 152.948,107.724 156.5,108.5C 156.5,146.167 156.5,183.833 156.5,221.5C 152.707,221.269 149.374,219.935 146.5,217.5C 146.5,179.833 146.5,142.167 146.5,104.5 Z"/></g>
<g><path style="opacity:1" fill="#d99d58" d="M 164.5,107.5 C 166.494,144.485 167.16,181.818 166.5,219.5C 163.37,221.023 160.037,221.689 156.5,221.5C 156.5,183.833 156.5,146.167 156.5,108.5C 159.206,108.425 161.873,108.092 164.5,107.5 Z"/></g>
<g><path style="opacity:0.998" fill="#956c7c" d="M 256.5,139.5 C 267.103,144.803 277.436,150.636 287.5,157C 289.464,158.451 290.797,160.284 291.5,162.5C 278.167,170.167 264.833,177.833 251.5,185.5C 248.225,182.192 244.558,179.358 240.5,177C 225.337,168.586 210.337,159.919 195.5,151C 191.781,148.636 187.781,147.136 183.5,146.5C 196.759,137.617 210.593,129.617 225,122.5C 235.706,127.77 246.206,133.437 256.5,139.5 Z"/></g>
<g><path style="opacity:0.967" fill="#594a8e" d="M 407.5,158.5 C 414.441,153.357 415.108,147.523 409.5,141C 407.801,140.042 405.967,139.542 404,139.5C 401.41,139.945 398.91,140.611 396.5,141.5C 397.96,139.537 399.627,137.704 401.5,136C 409.037,131.481 416.87,127.648 425,124.5C 436.487,127.811 439.487,134.811 434,145.5C 425.737,150.964 417.071,155.631 408,159.5C 407.601,159.272 407.435,158.938 407.5,158.5 Z"/></g>
<g><path style="opacity:0.972" fill="#7661bc" d="M 407.5,158.5 C 401.031,161.902 394.697,165.569 388.5,169.5C 387.929,176.581 387.095,183.581 386,190.5C 381.23,194.467 376.063,197.8 370.5,200.5C 360.997,205.081 351.997,210.414 343.5,216.5C 339.896,219.135 335.896,219.968 331.5,219C 327.167,216.5 322.833,214 318.5,211.5C 314.599,213.608 310.933,215.941 307.5,218.5C 303.251,219.626 299.251,221.293 295.5,223.5C 296.191,215.532 292.858,210.199 285.5,207.5C 295.139,202.012 304.806,196.512 314.5,191C 317.167,190.333 319.833,190.333 322.5,191C 326.75,193.374 330.916,195.874 335,198.5C 345.502,191.915 356.168,185.581 367,179.5C 367.333,173.5 367.667,167.5 368,161.5C 368.667,160.167 369.333,158.833 370,157.5C 378.98,152.267 387.813,146.933 396.5,141.5C 398.91,140.611 401.41,139.945 404,139.5C 405.967,139.542 407.801,140.042 409.5,141C 415.108,147.523 414.441,153.357 407.5,158.5 Z"/></g>
<g><path style="opacity:0.996" fill="#5e3746" d="M 183.5,146.5 C 187.781,147.136 191.781,148.636 195.5,151C 210.337,159.919 225.337,168.586 240.5,177C 244.558,179.358 248.225,182.192 251.5,185.5C 252.11,187.434 253.11,189.101 254.5,190.5C 254.899,192.966 256.065,194.966 258,196.5C 270.783,188.227 283.95,180.56 297.5,173.5C 299.115,178.509 298.781,183.343 296.5,188C 283.633,196.601 270.299,204.435 256.5,211.5C 254.007,212.774 251.341,213.44 248.5,213.5C 241.302,208.733 233.636,204.733 225.5,201.5C 225.047,200.542 224.381,199.708 223.5,199C 220.09,196.628 216.423,194.795 212.5,193.5C 204.007,187.863 195.34,182.363 186.5,177C 179.449,169.514 176.616,160.681 178,150.5C 179.018,148.072 180.852,146.738 183.5,146.5 Z"/></g>
<g><path style="opacity:0.988" fill="#5a4b8e" d="M 73.5,165.5 C 74.3195,168.305 74.8195,171.305 75,174.5C 75.4652,175.931 76.2986,177.097 77.5,178C 100.527,191.178 123.527,204.345 146.5,217.5C 149.374,219.935 152.707,221.269 156.5,221.5C 160.037,221.689 163.37,221.023 166.5,219.5C 181.861,210.821 197.194,202.155 212.5,193.5C 216.423,194.795 220.09,196.628 223.5,199C 224.381,199.708 225.047,200.542 225.5,201.5C 225.5,201.833 225.5,202.167 225.5,202.5C 211.832,209.665 198.499,217.331 185.5,225.5C 179.285,227.941 173.285,230.941 167.5,234.5C 166.702,234.957 166.369,235.624 166.5,236.5C 160.152,237.018 153.818,236.351 147.5,234.5C 140.362,229.76 133.028,225.26 125.5,221C 121.27,219.71 116.936,219.21 112.5,219.5C 111.582,216.497 110.249,213.663 108.5,211C 101.446,207.142 94.4458,203.309 87.5,199.5C 82.7246,197.23 78.0579,194.73 73.5,192C 67.2304,187.291 65.0637,181.124 67,173.5C 68.2739,170.064 70.4406,167.397 73.5,165.5 Z"/></g>
<g><path style="opacity:1" fill="#875e6e" d="M 291.5,162.5 C 293.262,163.262 294.262,164.596 294.5,166.5C 294.586,167.496 294.252,168.329 293.5,169C 280.767,176.699 267.767,183.865 254.5,190.5C 253.11,189.101 252.11,187.434 251.5,185.5C 264.833,177.833 278.167,170.167 291.5,162.5 Z"/></g>
<g><path style="opacity:1" fill="#785060" d="M 294.5,166.5 C 296.065,168.509 297.065,170.843 297.5,173.5C 283.95,180.56 270.783,188.227 258,196.5C 256.065,194.966 254.899,192.966 254.5,190.5C 267.767,183.865 280.767,176.699 293.5,169C 294.252,168.329 294.586,167.496 294.5,166.5 Z"/></g>
<g><path style="opacity:0.999" fill="#c4b8e9" d="M 87.5,199.5 C 94.4458,203.309 101.446,207.142 108.5,211C 110.249,213.663 111.582,216.497 112.5,219.5C 119.167,233.5 125.833,247.5 132.5,261.5C 133.508,263.544 134.508,265.544 135.5,267.5C 137.633,272.267 139.633,277.1 141.5,282C 139.996,287.82 136.329,289.82 130.5,288C 127.698,284.387 125.364,280.553 123.5,276.5C 122.721,273.455 121.387,270.789 119.5,268.5C 114.827,256.662 109.661,244.995 104,233.5C 103.186,230.823 101.686,228.823 99.5,227.5C 97.4622,220.043 94.4622,213.043 90.5,206.5C 89.2271,204.287 88.2271,201.954 87.5,199.5 Z"/></g>
<g><path style="opacity:0.978" fill="#c4b7e7" d="M 225.5,201.5 C 233.636,204.733 241.302,208.733 248.5,213.5C 247.467,219.538 243.8,222.538 237.5,222.5C 231.782,221.78 227.782,218.78 225.5,213.5C 225.5,209.833 225.5,206.167 225.5,202.5C 225.5,202.167 225.5,201.833 225.5,201.5 Z"/></g>
<g><path style="opacity:0.988" fill="#aa2c37" d="M 370.5,200.5 C 370.823,224.878 370.49,249.212 369.5,273.5C 370.79,274.408 372.123,274.241 373.5,273C 380.845,270.763 386.345,272.93 390,279.5C 390.5,300.497 390.667,321.497 390.5,342.5C 383.137,337.819 375.137,334.819 366.5,333.5C 366.666,324.161 366.5,314.827 366,305.5C 359.833,308.916 353.833,312.582 348,316.5C 347.5,323.492 347.334,330.492 347.5,337.5C 347.5,339.833 347.5,342.167 347.5,344.5C 347.5,351.5 347.5,358.5 347.5,365.5C 347.334,369.846 347.501,374.179 348,378.5C 351.743,387.903 355.576,397.236 359.5,406.5C 363.385,414.94 366.718,423.606 369.5,432.5C 369.018,436.806 367.018,440.14 363.5,442.5C 357.608,445.655 352.441,444.655 348,439.5C 341.101,422.277 333.934,405.277 326.5,388.5C 325.97,386.076 325.136,383.743 324,381.5C 323.5,372.173 323.334,362.839 323.5,353.5C 323.333,337.163 323.5,320.83 324,304.5C 325.122,302.376 326.622,300.543 328.5,299C 333.5,296.167 338.5,293.333 343.5,290.5C 344.659,286.878 344.825,283.211 344,279.5C 308.577,297.128 273.077,314.628 237.5,332C 233.571,333.477 229.571,334.644 225.5,335.5C 224.226,334.811 224.226,333.977 225.5,333C 229.007,330.746 232.673,328.746 236.5,327C 242.558,320.78 241.558,316.28 233.5,313.5C 225.187,316.407 217.687,320.74 211,326.5C 210.502,329.482 210.335,332.482 210.5,335.5C 208.5,335.167 206.5,334.833 204.5,334.5C 194.646,330.009 184.98,325.009 175.5,319.5C 165.366,313.263 155.033,307.263 144.5,301.5C 136.984,297.578 129.984,292.911 123.5,287.5C 122.272,283.816 122.272,280.15 123.5,276.5C 125.364,280.553 127.698,284.387 130.5,288C 136.329,289.82 139.996,287.82 141.5,282C 139.633,277.1 137.633,272.267 135.5,267.5C 136.71,267.068 137.71,266.401 138.5,265.5C 145.869,261.152 153.202,256.819 160.5,252.5C 164.457,250.527 168.124,248.194 171.5,245.5C 176.938,242.947 182.271,240.113 187.5,237C 189.063,236.241 190.063,235.074 190.5,233.5C 202.302,227.098 213.969,220.431 225.5,213.5C 227.782,218.78 231.782,221.78 237.5,222.5C 243.8,222.538 247.467,219.538 248.5,213.5C 251.341,213.44 254.007,212.774 256.5,211.5C 260.964,212.644 265.63,213.31 270.5,213.5C 265.151,217.267 259.651,220.934 254,224.5C 251.922,227.87 251.089,231.537 251.5,235.5C 250.168,245.645 249.501,256.145 249.5,267C 249.833,277.5 250.167,288 250.5,298.5C 281.395,283.259 312.228,267.926 343,252.5C 343.743,250.559 343.576,248.726 342.5,247C 320.313,244.477 298.313,241.644 276.5,238.5C 281.097,234.858 286.097,231.692 291.5,229C 292.965,227.226 294.298,225.392 295.5,223.5C 299.251,221.293 303.251,219.626 307.5,218.5C 319.519,219.669 331.519,221.002 343.5,222.5C 343.5,220.5 343.5,218.5 343.5,216.5C 351.997,210.414 360.997,205.081 370.5,200.5 Z M 343.5,216.5 C 343.5,218.5 343.5,220.5 343.5,222.5C 331.519,221.002 319.519,219.669 307.5,218.5C 310.933,215.941 314.599,213.608 318.5,211.5C 322.833,214 327.167,216.5 331.5,219C 335.896,219.968 339.896,219.135 343.5,216.5 Z M 251.5,235.5 C 254.897,242.861 260.564,245.361 268.5,243C 271.032,241.235 273.699,239.735 276.5,238.5C 298.313,241.644 320.313,244.477 342.5,247C 343.576,248.726 343.743,250.559 343,252.5C 312.228,267.926 281.395,283.259 250.5,298.5C 250.167,288 249.833,277.5 249.5,267C 249.501,256.145 250.168,245.645 251.5,235.5 Z M 210.5,310.5 C 210.525,291.982 207.525,273.982 201.5,256.5C 209.127,251.895 216.794,247.228 224.5,242.5C 225.5,265.157 225.833,287.824 225.5,310.5C 220.486,311.769 215.486,311.769 210.5,310.5 Z M 366.5,333.5 C 359.663,332.692 353.329,334.025 347.5,337.5C 347.334,330.492 347.5,323.492 348,316.5C 353.833,312.582 359.833,308.916 366,305.5C 366.5,314.827 366.666,324.161 366.5,333.5 Z"/></g>
<g><path style="opacity:0.985" fill="#5a498d" d="M 285.5,207.5 C 292.858,210.199 296.191,215.532 295.5,223.5C 294.298,225.392 292.965,227.226 291.5,229C 286.097,231.692 281.097,234.858 276.5,238.5C 273.699,239.735 271.032,241.235 268.5,243C 260.564,245.361 254.897,242.861 251.5,235.5C 251.089,231.537 251.922,227.87 254,224.5C 259.651,220.934 265.151,217.267 270.5,213.5C 274.928,210.121 279.928,208.121 285.5,207.5 Z"/></g>
<g><path style="opacity:1" fill="#e7e3f4" d="M 112.5,219.5 C 116.936,219.21 121.27,219.71 125.5,221C 133.028,225.26 140.362,229.76 147.5,234.5C 152.633,239.959 156.966,245.959 160.5,252.5C 153.202,256.819 145.869,261.152 138.5,265.5C 136.853,263.674 134.853,262.34 132.5,261.5C 125.833,247.5 119.167,233.5 112.5,219.5 Z"/></g>
<g><path style="opacity:1" fill="#e7e3f5" d="M 99.5,227.5 C 101.686,228.823 103.186,230.823 104,233.5C 109.661,244.995 114.827,256.662 119.5,268.5C 118.809,275.384 120.142,281.718 123.5,287.5C 125.859,295.859 131.192,301.192 139.5,303.5C 141.557,303.564 143.223,302.898 144.5,301.5C 155.033,307.263 165.366,313.263 175.5,319.5C 172.208,338.979 160.874,346.812 141.5,343C 133.155,339.137 125.821,333.97 119.5,327.5C 107.525,314.221 99.1915,298.888 94.5,281.5C 91.8881,270.682 90.8881,259.682 91.5,248.5C 92.2411,240.698 94.9077,233.698 99.5,227.5 Z"/></g>
<g><path style="opacity:0.978" fill="#4e407a" d="M 185.5,225.5 C 186.669,228.511 188.336,231.178 190.5,233.5C 190.063,235.074 189.063,236.241 187.5,237C 182.271,240.113 176.938,242.947 171.5,245.5C 169.58,242.661 167.913,239.661 166.5,236.5C 166.369,235.624 166.702,234.957 167.5,234.5C 173.285,230.941 179.285,227.941 185.5,225.5 Z"/></g>
<g><path style="opacity:0.98" fill="#6958a9" d="M 90.5,206.5 C 94.4622,213.043 97.4622,220.043 99.5,227.5C 94.9077,233.698 92.2411,240.698 91.5,248.5C 86.5,248.5 81.5,248.5 76.5,248.5C 76.0389,236.972 78.2056,225.972 83,215.5C 85.0421,212.06 87.5421,209.06 90.5,206.5 Z"/></g>
<g><path style="opacity:1" fill="#6956a4" d="M 147.5,234.5 C 153.818,236.351 160.152,237.018 166.5,236.5C 167.913,239.661 169.58,242.661 171.5,245.5C 168.124,248.194 164.457,250.527 160.5,252.5C 156.966,245.959 152.633,239.959 147.5,234.5 Z"/></g>
<g><path style="opacity:0.988" fill="#43376a" d="M 201.5,256.5 C 207.525,273.982 210.525,291.982 210.5,310.5C 203.15,308.471 196.483,305.137 190.5,300.5C 189.009,289.22 186.342,278.22 182.5,267.5C 187.597,263.775 192.93,260.275 198.5,257C 199.448,256.517 200.448,256.351 201.5,256.5 Z"/></g>
<g><path style="opacity:0.978" fill="#63529c" d="M 76.5,248.5 C 81.5,248.5 86.5,248.5 91.5,248.5C 90.8881,259.682 91.8881,270.682 94.5,281.5C 89.9677,281.182 85.6344,281.515 81.5,282.5C 77.7987,271.595 76.132,260.262 76.5,248.5 Z"/></g>
<g><path style="opacity:1" fill="#826abd" d="M 132.5,261.5 C 134.853,262.34 136.853,263.674 138.5,265.5C 137.71,266.401 136.71,267.068 135.5,267.5C 134.508,265.544 133.508,263.544 132.5,261.5 Z"/></g>
<g><path style="opacity:1" fill="#7d67bd" d="M 119.5,268.5 C 121.387,270.789 122.721,273.455 123.5,276.5C 122.272,280.15 122.272,283.816 123.5,287.5C 120.142,281.718 118.809,275.384 119.5,268.5 Z"/></g>
<g><path style="opacity:1" fill="#e4dcee" d="M 171.5,273.5 C 172.761,277.453 173.928,281.453 175,285.5C 175.789,287.712 175.622,289.712 174.5,291.5C 168.861,288.345 163.194,285.179 157.5,282C 162.028,278.904 166.695,276.071 171.5,273.5 Z"/></g>
<g><path style="opacity:1" fill="#5e4d92" d="M 182.5,267.5 C 186.342,278.22 189.009,289.22 190.5,300.5C 184.835,298.003 179.502,295.003 174.5,291.5C 175.622,289.712 175.789,287.712 175,285.5C 173.928,281.453 172.761,277.453 171.5,273.5C 174.678,270.742 178.345,268.742 182.5,267.5 Z"/></g>
<g><path style="opacity:1" fill="#7e64b9" d="M 123.5,287.5 C 129.984,292.911 136.984,297.578 144.5,301.5C 143.223,302.898 141.557,303.564 139.5,303.5C 131.192,301.192 125.859,295.859 123.5,287.5 Z"/></g>
<g><path style="opacity:0.989" fill="#594a8d" d="M 94.5,281.5 C 99.1915,298.888 107.525,314.221 119.5,327.5C 113.642,327.178 107.975,327.511 102.5,328.5C 92.837,314.499 85.837,299.166 81.5,282.5C 85.6344,281.515 89.9677,281.182 94.5,281.5 Z"/></g>
<g><path style="opacity:0.996" fill="#c4b8e9" d="M 225.5,335.5 C 225.667,346.838 225.5,358.172 225,369.5C 224.768,370.737 224.268,371.737 223.5,372.5C 218.256,371.058 213.923,368.391 210.5,364.5C 210.5,354.833 210.5,345.167 210.5,335.5C 210.335,332.482 210.502,329.482 211,326.5C 217.687,320.74 225.187,316.407 233.5,313.5C 241.558,316.28 242.558,320.78 236.5,327C 232.673,328.746 229.007,330.746 225.5,333C 224.226,333.977 224.226,334.811 225.5,335.5 Z"/></g>
<g><path style="opacity:0.99" fill="#7561bc" d="M 366.5,333.5 C 375.137,334.819 383.137,337.819 390.5,342.5C 394.238,344.697 397.571,347.364 400.5,350.5C 395.186,354.668 389.353,358.001 383,360.5C 375.944,355.383 368.444,350.883 360.5,347C 356.368,345.1 352.034,344.267 347.5,344.5C 347.5,342.167 347.5,339.833 347.5,337.5C 353.329,334.025 359.663,332.692 366.5,333.5 Z"/></g>
<g><path style="opacity:0.992" fill="#4d407a" d="M 175.5,319.5 C 184.98,325.009 194.646,330.009 204.5,334.5C 201.135,343.367 195.135,349.867 186.5,354C 180.5,357.333 174.5,360.667 168.5,364C 153.91,367.686 140.577,365.02 128.5,356C 118.359,348.211 109.692,339.044 102.5,328.5C 107.975,327.511 113.642,327.178 119.5,327.5C 125.821,333.97 133.155,339.137 141.5,343C 160.874,346.812 172.208,338.979 175.5,319.5 Z"/></g>
<g><path style="opacity:0.998" fill="#6e5cb0" d="M 347.5,344.5 C 352.034,344.267 356.368,345.1 360.5,347C 368.444,350.883 375.944,355.383 383,360.5C 389.353,358.001 395.186,354.668 400.5,350.5C 402.833,352.167 404.833,354.167 406.5,356.5C 401.438,356.862 397.438,359.029 394.5,363C 392.833,363.833 391.167,364.667 389.5,365.5C 388.417,366.365 388.251,367.365 389,368.5C 390.685,370.017 392.185,371.684 393.5,373.5C 387.681,374.167 382.014,374.833 376.5,375.5C 368.255,368.196 358.589,364.862 347.5,365.5C 347.5,358.5 347.5,351.5 347.5,344.5 Z"/></g>
<g><path style="opacity:0.991" fill="#936a7a" d="M 210.5,364.5 C 213.923,368.391 218.256,371.058 223.5,372.5C 225.226,374.228 226.559,376.228 227.5,378.5C 225.692,378.491 224.025,378.991 222.5,380C 217.916,384.457 212.583,387.624 206.5,389.5C 203.534,391.569 200.701,393.902 198,396.5C 195.833,393 193,390.167 189.5,388C 183.814,384.322 177.814,381.488 171.5,379.5C 180.771,373.19 190.438,367.356 200.5,362C 204.015,361.913 207.348,362.746 210.5,364.5 Z"/></g>
<g><path style="opacity:1" fill="#e7e3f4" d="M 347.5,365.5 C 358.589,364.862 368.255,368.196 376.5,375.5C 387.447,385.451 396.114,397.117 402.5,410.5C 407.053,420.711 410.053,431.377 411.5,442.5C 412.256,453.399 411.09,464.066 408,474.5C 404.587,482.081 399.087,487.414 391.5,490.5C 375.463,490.232 362.296,483.899 352,471.5C 348.637,466.65 345.137,461.983 341.5,457.5C 336.689,448.207 332.689,438.54 329.5,428.5C 326.039,417.449 324.706,406.116 325.5,394.5C 326.15,392.565 326.483,390.565 326.5,388.5C 333.934,405.277 341.101,422.277 348,439.5C 352.441,444.655 357.608,445.655 363.5,442.5C 370.725,452.137 377.225,451.804 383,441.5C 384.595,426.526 379.095,415.026 366.5,407C 364.19,406.503 361.857,406.337 359.5,406.5C 355.576,397.236 351.743,387.903 348,378.5C 347.501,374.179 347.334,369.846 347.5,365.5 Z"/></g>
<g><path style="opacity:0.985" fill="#534586" d="M 412.5,363.5 C 416.238,366.91 419.238,370.91 421.5,375.5C 416.903,379.142 411.903,382.308 406.5,385C 405.177,385.816 404.511,386.983 404.5,388.5C 401.769,384.059 398.769,379.725 395.5,375.5C 399.964,372.43 404.631,369.597 409.5,367C 411.063,366.241 412.063,365.074 412.5,363.5 Z"/></g>
<g><path style="opacity:0.999" fill="#613a48" d="M 227.5,378.5 C 227.896,381.044 227.229,383.211 225.5,385C 215.8,391.367 205.633,396.867 195,401.5C 187.992,398.412 181.158,394.912 174.5,391C 171.798,388.597 170.131,385.597 169.5,382C 169.639,380.699 170.305,379.866 171.5,379.5C 177.814,381.488 183.814,384.322 189.5,388C 193,390.167 195.833,393 198,396.5C 200.701,393.902 203.534,391.569 206.5,389.5C 212.583,387.624 217.916,384.457 222.5,380C 224.025,378.991 225.692,378.491 227.5,378.5 Z"/></g>
<g><path style="opacity:0.972" fill="#6956a7" d="M 323.5,353.5 C 323.334,362.839 323.5,372.173 324,381.5C 325.136,383.743 325.97,386.076 326.5,388.5C 326.483,390.565 326.15,392.565 325.5,394.5C 320.5,394.5 315.5,394.5 310.5,394.5C 310.158,382.534 312.658,371.201 318,360.5C 319.697,357.98 321.53,355.647 323.5,353.5 Z"/></g>
<g><path style="opacity:1" fill="#6655a3" d="M 406.5,356.5 C 409.243,358.239 411.243,360.573 412.5,363.5C 412.063,365.074 411.063,366.241 409.5,367C 404.631,369.597 399.964,372.43 395.5,375.5C 398.769,379.725 401.769,384.059 404.5,388.5C 408.633,395.101 411.967,402.101 414.5,409.5C 410.298,409.183 406.298,409.517 402.5,410.5C 396.114,397.117 387.447,385.451 376.5,375.5C 382.014,374.833 387.681,374.167 393.5,373.5C 392.185,371.684 390.685,370.017 389,368.5C 388.251,367.365 388.417,366.365 389.5,365.5C 391.167,364.667 392.833,363.833 394.5,363C 397.438,359.029 401.438,356.862 406.5,356.5 Z"/></g>
<g><path style="opacity:0.984" fill="#43386b" d="M 421.5,375.5 C 442.503,407.176 448.67,441.51 440,478.5C 434.461,491.54 424.961,500.207 411.5,504.5C 415.288,500.371 418.288,495.704 420.5,490.5C 422.774,485.072 424.274,479.406 425,473.5C 425.667,463.5 425.667,453.5 425,443.5C 424.79,441.942 424.29,440.609 423.5,439.5C 422.343,428.853 419.343,418.853 414.5,409.5C 411.967,402.101 408.633,395.101 404.5,388.5C 404.511,386.983 405.177,385.816 406.5,385C 411.903,382.308 416.903,379.142 421.5,375.5 Z"/></g>
<g><path style="opacity:1" fill="#7863bc" d="M 359.5,406.5 C 361.857,406.337 364.19,406.503 366.5,407C 379.095,415.026 384.595,426.526 383,441.5C 377.225,451.804 370.725,452.137 363.5,442.5C 367.018,440.14 369.018,436.806 369.5,432.5C 366.718,423.606 363.385,414.94 359.5,406.5 Z"/></g>
<g><path style="opacity:0.972" fill="#61519b" d="M 310.5,394.5 C 315.5,394.5 320.5,394.5 325.5,394.5C 324.706,406.116 326.039,417.449 329.5,428.5C 324.93,427.559 320.263,427.226 315.5,427.5C 312.292,416.864 310.625,405.864 310.5,394.5 Z"/></g>
<g><path style="opacity:1" fill="#5c4d94" d="M 414.5,409.5 C 419.343,418.853 422.343,428.853 423.5,439.5C 423.5,440.5 423.5,441.5 423.5,442.5C 419.5,442.5 415.5,442.5 411.5,442.5C 410.053,431.377 407.053,420.711 402.5,410.5C 406.298,409.517 410.298,409.183 414.5,409.5 Z"/></g>
<g><path style="opacity:0.975" fill="#5a4b8f" d="M 315.5,427.5 C 320.263,427.226 324.93,427.559 329.5,428.5C 332.689,438.54 336.689,448.207 341.5,457.5C 336.5,457.5 331.5,457.5 326.5,457.5C 321.647,447.943 317.981,437.943 315.5,427.5 Z"/></g>
<g><path style="opacity:1" fill="#524583" d="M 423.5,439.5 C 424.29,440.609 424.79,441.942 425,443.5C 425.667,453.5 425.667,463.5 425,473.5C 424.274,479.406 422.774,485.072 420.5,490.5C 410.833,490.5 401.167,490.5 391.5,490.5C 399.087,487.414 404.587,482.081 408,474.5C 411.09,464.066 412.256,453.399 411.5,442.5C 415.5,442.5 419.5,442.5 423.5,442.5C 423.5,441.5 423.5,440.5 423.5,439.5 Z"/></g>
<g><path style="opacity:0.991" fill="#4d407b" d="M 326.5,457.5 C 331.5,457.5 336.5,457.5 341.5,457.5C 345.137,461.983 348.637,466.65 352,471.5C 362.296,483.899 375.463,490.232 391.5,490.5C 401.167,490.5 410.833,490.5 420.5,490.5C 418.288,495.704 415.288,500.371 411.5,504.5C 407.796,507.352 403.796,509.685 399.5,511.5C 393.833,511.5 388.167,511.5 382.5,511.5C 365.297,505.119 351.131,494.453 340,479.5C 335.238,472.306 330.738,464.973 326.5,457.5 Z"/></g>
</svg>
