<?xml version="1.0" encoding="UTF-8"?>
<!DOCTYPE svg PUBLIC "-//W3C//DTD SVG 1.1//EN" "http://www.w3.org/Graphics/SVG/1.1/DTD/svg11.dtd">
<svg xmlns="http://www.w3.org/2000/svg" version="1.1" width="512px" height="512px" style="shape-rendering:geometricPrecision; text-rendering:geometricPrecision; image-rendering:optimizeQuality; fill-rule:evenodd; clip-rule:evenodd" xmlns:xlink="http://www.w3.org/1999/xlink">
<g><path style="opacity:0.995" fill="#e4b87e" d="M 157.5,-0.5 C 160.167,-0.5 162.833,-0.5 165.5,-0.5C 175.167,16.8333 184.833,34.1667 194.5,51.5C 185.033,57.404 175.367,63.0706 165.5,68.5C 154.833,50.1667 144.167,31.8333 133.5,13.5C 141.204,8.31499 149.204,3.64833 157.5,-0.5 Z"/></g>
<g><path style="opacity:0.987" fill="#e1b06f" d="M 165.5,-0.5 C 167.5,-0.5 169.5,-0.5 171.5,-0.5C 190.959,9.7286 209.959,20.7286 228.5,32.5C 217.15,38.8614 205.816,45.1947 194.5,51.5C 184.833,34.1667 175.167,16.8333 165.5,-0.5 Z"/></g>
<g><path style="opacity:0.997" fill="#e6bf8a" d="M 133.5,13.5 C 144.167,31.8333 154.833,50.1667 165.5,68.5C 156.5,74.3357 147.167,79.6691 137.5,84.5C 130.358,71.5543 123.191,58.5543 116,45.5C 112.725,39.9304 109.225,34.5971 105.5,29.5C 114.5,23.6643 123.833,18.3309 133.5,13.5 Z"/></g>
<g><path style="opacity:0.999" fill="#dda760" d="M 228.5,32.5 C 234.165,34.9969 239.498,37.9969 244.5,41.5C 197.046,67.7264 150.046,94.7264 103.5,122.5C 98.6318,119.566 93.6318,116.9 88.5,114.5C 88.5,114.167 88.5,113.833 88.5,113.5C 95.1667,109.5 101.833,105.5 108.5,101.5C 118.367,96.0706 128.033,90.404 137.5,84.5C 147.167,79.6691 156.5,74.3357 165.5,68.5C 175.367,63.0706 185.033,57.404 194.5,51.5C 205.816,45.1947 217.15,38.8614 228.5,32.5 Z"/></g>
<g><path style="opacity:1" fill="#cc8342" d="M 244.5,41.5 C 246.434,42.1103 248.101,43.1103 249.5,44.5C 249.063,46.0744 248.063,47.2411 246.5,48C 201.833,73.6667 157.167,99.3333 112.5,125C 111.748,125.671 111.414,126.504 111.5,127.5C 108.797,125.819 106.131,124.153 103.5,122.5C 150.046,94.7264 197.046,67.7264 244.5,41.5 Z"/></g>
<g><path style="opacity:0.995" fill="#e9c697" d="M 105.5,29.5 C 109.225,34.5971 112.725,39.9304 116,45.5C 123.191,58.5543 130.358,71.5543 137.5,84.5C 128.033,90.404 118.367,96.0706 108.5,101.5C 98.6784,84.5275 88.8451,67.5275 79,50.5C 77.9914,48.9751 77.4914,47.3084 77.5,45.5C 86.4998,39.6643 95.8331,34.3309 105.5,29.5 Z"/></g>
<g><path style="opacity:0.995" fill="#dda761" d="M 249.5,44.5 C 270.523,56.0974 291.357,68.0974 312,80.5C 312.667,81.8333 313.333,83.1667 314,84.5C 314.5,100.497 314.667,116.497 314.5,132.5C 311.206,132.259 308.206,133.092 305.5,135C 267.186,157.822 228.519,179.988 189.5,201.5C 188.505,190.012 188.172,178.345 188.5,166.5C 185.941,166.802 183.607,166.468 181.5,165.5C 186.248,165.725 190.915,165.225 195.5,164C 201.692,160.741 207.692,157.241 213.5,153.5C 223.5,147.833 233.5,142.167 243.5,136.5C 252.681,131.276 261.681,125.776 270.5,120C 260.85,103.01 251.183,86.01 241.5,69C 231.812,73.3482 222.478,78.5149 213.5,84.5C 203.551,89.8033 193.885,95.4699 184.5,101.5C 164.335,112.079 144.669,123.412 125.5,135.5C 120.833,132.833 116.167,130.167 111.5,127.5C 111.414,126.504 111.748,125.671 112.5,125C 157.167,99.3333 201.833,73.6667 246.5,48C 248.063,47.2411 249.063,46.0744 249.5,44.5 Z"/></g>
<g><path style="opacity:0.993" fill="#eaca9f" d="M 77.5,45.5 C 77.4914,47.3084 77.9914,48.9751 79,50.5C 88.8451,67.5275 98.6784,84.5275 108.5,101.5C 101.833,105.5 95.1667,109.5 88.5,113.5C 73.7265,105.611 59.0598,97.4445 44.5,89C 40.6443,86.9752 37.6443,84.1418 35.5,80.5C 34.5706,75.2346 35.9039,70.7346 39.5,67C 52.0591,59.5563 64.7257,52.3896 77.5,45.5 Z"/></g>
<g><path style="opacity:1" fill="#e1b171" d="M 243.5,136.5 C 234.002,118.832 224.002,101.499 213.5,84.5C 222.478,78.5149 231.812,73.3482 241.5,69C 251.183,86.01 260.85,103.01 270.5,120C 261.681,125.776 252.681,131.276 243.5,136.5 Z"/></g>
<g><path style="opacity:0.999" fill="#cc8241" d="M 35.5,80.5 C 37.6443,84.1418 40.6443,86.9752 44.5,89C 59.0598,97.4445 73.7265,105.611 88.5,113.5C 88.5,113.833 88.5,114.167 88.5,114.5C 87.3417,124.325 87.1751,134.325 88,144.5C 99.9218,151.879 112.088,158.879 124.5,165.5C 125.499,155.522 125.832,145.522 125.5,135.5C 142.337,145.42 159.337,155.086 176.5,164.5C 176.5,220.5 176.5,276.5 176.5,332.5C 173.927,333.555 171.261,333.722 168.5,333C 128.5,309.667 88.5,286.333 48.5,263C 45.3681,261.218 42.0347,260.052 38.5,259.5C 37.4955,258.317 36.6622,256.984 36,255.5C 35.5,197.168 35.3333,138.834 35.5,80.5 Z"/></g>
<g><path style="opacity:1" fill="#e4b87d" d="M 213.5,84.5 C 224.002,101.499 234.002,118.832 243.5,136.5C 233.5,142.167 223.5,147.833 213.5,153.5C 204.372,135.914 194.705,118.581 184.5,101.5C 193.885,95.4699 203.551,89.8033 213.5,84.5 Z"/></g>
<g><path style="opacity:1" fill="#e7c08c" d="M 184.5,101.5 C 194.705,118.581 204.372,135.914 213.5,153.5C 207.692,157.241 201.692,160.741 195.5,164C 190.915,165.225 186.248,165.725 181.5,165.5C 179.708,165.634 178.042,165.301 176.5,164.5C 159.337,155.086 142.337,145.42 125.5,135.5C 144.669,123.412 164.335,112.079 184.5,101.5 Z"/></g>
<g><path style="opacity:1" fill="#ba5d25" d="M 88.5,114.5 C 93.6318,116.9 98.6318,119.566 103.5,122.5C 106.131,124.153 108.797,125.819 111.5,127.5C 116.167,130.167 120.833,132.833 125.5,135.5C 125.832,145.522 125.499,155.522 124.5,165.5C 112.088,158.879 99.9218,151.879 88,144.5C 87.1751,134.325 87.3417,124.325 88.5,114.5 Z"/></g>
<g><path style="opacity:0.999" fill="#fec438" d="M 314.5,132.5 C 322.428,136.441 330.095,140.774 337.5,145.5C 295.284,166.275 253.284,187.609 211.5,209.5C 210.289,210.274 210.289,211.107 211.5,212C 219.194,216.512 226.861,221.012 234.5,225.5C 242.931,230.221 251.264,235.221 259.5,240.5C 267.063,246.735 272.73,254.402 276.5,263.5C 278.421,274.702 281.088,285.702 284.5,296.5C 288.486,313.446 292.319,330.446 296,347.5C 301.947,351.556 308.113,355.222 314.5,358.5C 322.5,363.167 330.5,367.833 338.5,372.5C 346.924,376.944 350.591,383.944 349.5,393.5C 349.5,402.833 349.5,412.167 349.5,421.5C 349.5,437.5 349.5,453.5 349.5,469.5C 342.515,466.687 335.515,463.02 328.5,458.5C 326.604,459.275 324.937,460.275 323.5,461.5C 322.833,466.833 322.167,472.167 321.5,477.5C 320.609,476.89 319.609,476.557 318.5,476.5C 318.098,469.238 316.765,462.238 314.5,455.5C 309.672,436.332 299.672,420.499 284.5,408C 277.513,403.225 269.846,400.891 261.5,401C 252.386,403.447 246.553,409.28 244,418.5C 243.126,422.965 242.293,427.298 241.5,431.5C 211.698,414.765 182.031,397.765 152.5,380.5C 145.504,375.666 138.171,371.333 130.5,367.5C 129.727,356.285 127.06,345.618 122.5,335.5C 116.225,317.799 104.891,304.299 88.5,295C 70.3473,289.167 59.1807,295.667 55,314.5C 54.8195,317.695 54.3195,320.695 53.5,323.5C 48.6225,320.797 44.1225,317.464 40,313.5C 38.1395,311.112 36.8061,308.446 36,305.5C 34.4523,292.209 34.1189,278.875 35,265.5C 35.4238,262.975 36.5905,260.975 38.5,259.5C 42.0347,260.052 45.3681,261.218 48.5,263C 88.5,286.333 128.5,309.667 168.5,333C 171.261,333.722 173.927,333.555 176.5,332.5C 179.541,331.625 181.375,329.625 182,326.5C 182.333,287.167 182.667,247.833 183,208.5C 184.694,205.642 186.861,203.309 189.5,201.5C 228.519,179.988 267.186,157.822 305.5,135C 308.206,133.092 311.206,132.259 314.5,132.5 Z"/></g>
<g><path style="opacity:0.998" fill="#fcbe37" d="M 337.5,145.5 C 345.329,149.58 352.996,153.913 360.5,158.5C 360.631,159.376 360.298,160.043 359.5,160.5C 317.615,181.941 275.948,203.608 234.5,225.5C 226.861,221.012 219.194,216.512 211.5,212C 210.289,211.107 210.289,210.274 211.5,209.5C 253.284,187.609 295.284,166.275 337.5,145.5 Z"/></g>
<g><path style="opacity:0.998" fill="#fab837" d="M 360.5,158.5 C 369.225,162.854 377.225,168.188 384.5,174.5C 342.675,196.245 301.009,218.245 259.5,240.5C 251.264,235.221 242.931,230.221 234.5,225.5C 275.948,203.608 317.615,181.941 359.5,160.5C 360.298,160.043 360.631,159.376 360.5,158.5 Z"/></g>
<g><path style="opacity:1" fill="#d18e4b" d="M 176.5,164.5 C 178.042,165.301 179.708,165.634 181.5,165.5C 183.607,166.468 185.941,166.802 188.5,166.5C 188.172,178.345 188.505,190.012 189.5,201.5C 186.861,203.309 184.694,205.642 183,208.5C 182.667,247.833 182.333,287.167 182,326.5C 181.375,329.625 179.541,331.625 176.5,332.5C 176.5,276.5 176.5,220.5 176.5,164.5 Z"/></g>
<g><path style="opacity:0.998" fill="#f7b237" d="M 384.5,174.5 C 391.471,181.433 396.138,189.766 398.5,199.5C 357.483,220.34 316.817,241.673 276.5,263.5C 272.73,254.402 267.063,246.735 259.5,240.5C 301.009,218.245 342.675,196.245 384.5,174.5 Z"/></g>
<g><path style="opacity:0.995" fill="#f3aa39" d="M 398.5,199.5 C 401.483,211.431 404.149,223.431 406.5,235.5C 404.402,234.516 402.402,234.849 400.5,236.5C 398.293,227.212 396.293,217.879 394.5,208.5C 393.448,208.351 392.448,208.517 391.5,209C 372.303,220.431 352.969,231.598 333.5,242.5C 323.33,248.752 312.997,254.752 302.5,260.5C 298.486,262.506 294.819,265.006 291.5,268C 292.29,271.356 293.29,274.523 294.5,277.5C 294.704,280.518 295.037,283.518 295.5,286.5C 295.785,288.288 295.452,289.955 294.5,291.5C 291.14,293.18 287.807,294.847 284.5,296.5C 281.088,285.702 278.421,274.702 276.5,263.5C 316.817,241.673 357.483,220.34 398.5,199.5 Z"/></g>
<g><path style="opacity:1" fill="#705cb0" d="M 400.5,236.5 C 400.833,238.5 401.167,240.5 401.5,242.5C 378.833,243.833 356.167,243.833 333.5,242.5C 352.969,231.598 372.303,220.431 391.5,209C 392.448,208.517 393.448,208.351 394.5,208.5C 396.293,217.879 398.293,227.212 400.5,236.5 Z"/></g>
<g><path style="opacity:1" fill="#6554a0" d="M 333.5,242.5 C 356.167,243.833 378.833,243.833 401.5,242.5C 403.405,248.252 404.738,254.252 405.5,260.5C 371.167,261.833 336.833,261.833 302.5,260.5C 312.997,254.752 323.33,248.752 333.5,242.5 Z"/></g>
<g><path style="opacity:1" fill="#6b59ab" d="M 199.5,225.5 C 215.608,234.39 231.608,243.557 247.5,253C 250.406,256.311 252.073,260.144 252.5,264.5C 234.5,264.5 216.5,264.5 198.5,264.5C 198.171,251.323 198.505,238.323 199.5,225.5 Z"/></g>
<g><path style="opacity:1" fill="#5d4d94" d="M 302.5,260.5 C 336.833,261.833 371.167,261.833 405.5,260.5C 407.117,262.98 407.45,265.646 406.5,268.5C 401.15,271.528 395.816,274.528 390.5,277.5C 358.5,277.5 326.5,277.5 294.5,277.5C 293.29,274.523 292.29,271.356 291.5,268C 294.819,265.006 298.486,262.506 302.5,260.5 Z"/></g>
<g><path style="opacity:1" fill="#61509a" d="M 198.5,264.5 C 216.5,264.5 234.5,264.5 252.5,264.5C 254.118,269.256 255.118,274.256 255.5,279.5C 236.5,279.5 217.5,279.5 198.5,279.5C 198.5,274.5 198.5,269.5 198.5,264.5 Z"/></g>
<g><path style="opacity:0.998" fill="#ee9a36" d="M 406.5,235.5 C 410.299,249.295 413.799,263.295 417,277.5C 424.648,282.066 432.148,286.733 439.5,291.5C 437.073,293.558 434.407,295.391 431.5,297C 391.799,316.624 352.799,337.124 314.5,358.5C 308.113,355.222 301.947,351.556 296,347.5C 292.319,330.446 288.486,313.446 284.5,296.5C 287.807,294.847 291.14,293.18 294.5,291.5C 295.452,289.955 295.785,288.288 295.5,286.5C 296.407,288.657 297.073,290.99 297.5,293.5C 299.991,304.463 302.324,315.463 304.5,326.5C 324.325,316.336 343.659,305.336 362.5,293.5C 372.167,288.669 381.5,283.336 390.5,277.5C 395.816,274.528 401.15,271.528 406.5,268.5C 407.45,265.646 407.117,262.98 405.5,260.5C 404.738,254.252 403.405,248.252 401.5,242.5C 401.167,240.5 400.833,238.5 400.5,236.5C 402.402,234.849 404.402,234.516 406.5,235.5 Z"/></g>
<g><path style="opacity:1" fill="#554787" d="M 294.5,277.5 C 326.5,277.5 358.5,277.5 390.5,277.5C 381.5,283.336 372.167,288.669 362.5,293.5C 340.833,293.5 319.167,293.5 297.5,293.5C 297.073,290.99 296.407,288.657 295.5,286.5C 295.037,283.518 294.704,280.518 294.5,277.5 Z"/></g>
<g><path style="opacity:1" fill="#594a8c" d="M 199.5,225.5 C 198.505,238.323 198.171,251.323 198.5,264.5C 198.5,269.5 198.5,274.5 198.5,279.5C 217.5,279.5 236.5,279.5 255.5,279.5C 257.656,285.197 258.99,291.197 259.5,297.5C 259.5,298.833 259.5,300.167 259.5,301.5C 245.167,301.5 230.833,301.5 216.5,301.5C 210.279,298.624 204.279,295.291 198.5,291.5C 197.167,269.167 197.167,246.833 198.5,224.5C 199.107,224.624 199.44,224.957 199.5,225.5 Z"/></g>
<g><path style="opacity:0.997" fill="#ec9234" d="M 439.5,291.5 C 448.339,295.749 456.672,300.749 464.5,306.5C 422.5,328.5 380.5,350.5 338.5,372.5C 330.5,367.833 322.5,363.167 314.5,358.5C 352.799,337.124 391.799,316.624 431.5,297C 434.407,295.391 437.073,293.558 439.5,291.5 Z"/></g>
<g><path style="opacity:1" fill="#4e407a" d="M 297.5,293.5 C 319.167,293.5 340.833,293.5 362.5,293.5C 343.659,305.336 324.325,316.336 304.5,326.5C 302.324,315.463 299.991,304.463 297.5,293.5 Z"/></g>
<g><path style="opacity:1" fill="#4f417a" d="M 259.5,297.5 C 262.104,308.352 264.27,319.352 266,330.5C 249.19,321.185 232.69,311.519 216.5,301.5C 230.833,301.5 245.167,301.5 259.5,301.5C 259.5,300.167 259.5,298.833 259.5,297.5 Z"/></g>
<g><path style="opacity:1" fill="#6c59aa" d="M 122.5,335.5 C 118.298,335.183 114.298,335.517 110.5,336.5C 105.791,327.621 99.1248,320.454 90.5,315C 78.7234,311.094 71.5567,315.261 69,327.5C 68.5026,330.146 68.3359,332.813 68.5,335.5C 63.8333,335.5 59.1667,335.5 54.5,335.5C 53.8379,331.534 53.5045,327.534 53.5,323.5C 54.3195,320.695 54.8195,317.695 55,314.5C 59.1807,295.667 70.3473,289.167 88.5,295C 104.891,304.299 116.225,317.799 122.5,335.5 Z"/></g>
<g><path style="opacity:0.995" fill="#e98c35" d="M 464.5,306.5 C 467.324,308.8 469.157,311.8 470,315.5C 470.5,322.492 470.666,329.492 470.5,336.5C 469.839,335.282 469.172,333.949 468.5,332.5C 428.936,353.115 389.27,373.448 349.5,393.5C 350.591,383.944 346.924,376.944 338.5,372.5C 380.5,350.5 422.5,328.5 464.5,306.5 Z"/></g>
<g><path style="opacity:1" fill="#e5e1f3" d="M 110.5,336.5 C 115.098,345.992 116.932,355.992 116,366.5C 111.201,383.476 101.701,386.643 87.5,376C 76.4547,364.741 70.1213,351.241 68.5,335.5C 68.3359,332.813 68.5026,330.146 69,327.5C 71.5567,315.261 78.7234,311.094 90.5,315C 99.1248,320.454 105.791,327.621 110.5,336.5 Z"/></g>
<g><path style="opacity:1" fill="#7864be" d="M 84.5,330.5 C 93.9862,331.132 100.153,336.132 103,345.5C 104.476,350.076 104.81,354.743 104,359.5C 101.78,365.336 97.9467,366.836 92.5,364C 83.5628,356.617 79.7295,347.117 81,335.5C 81.9973,333.677 83.1639,332.01 84.5,330.5 Z"/></g>
<g><path style="opacity:1" fill="#e78735" d="M 470.5,336.5 C 470.5,344.167 470.5,351.833 470.5,359.5C 468.716,359.893 467.05,360.559 465.5,361.5C 465.663,359.143 465.497,356.81 465,354.5C 464.586,354.043 464.086,353.709 463.5,353.5C 456.916,357.375 450.416,361.375 444,365.5C 443.501,371.491 443.334,377.491 443.5,383.5C 442.679,380.359 442.179,377.025 442,373.5C 441.329,374.252 440.496,374.586 439.5,374.5C 439.66,372.801 439.494,371.134 439,369.5C 422.418,378.874 405.918,388.374 389.5,398C 388.663,399.011 388.33,400.178 388.5,401.5C 386.216,401.975 384.216,402.975 382.5,404.5C 382.585,403.005 381.919,402.005 380.5,401.5C 373.916,405.375 367.416,409.375 361,413.5C 360.501,419.157 360.334,424.824 360.5,430.5C 359.834,425.983 359.167,421.317 358.5,416.5C 355.634,418.432 352.634,420.099 349.5,421.5C 349.5,412.167 349.5,402.833 349.5,393.5C 389.27,373.448 428.936,353.115 468.5,332.5C 469.172,333.949 469.839,335.282 470.5,336.5 Z"/></g>
<g><path style="opacity:1" fill="#e9e1ef" d="M 465.5,361.5 C 465.854,365.637 465.354,369.637 464,373.5C 458.415,377.377 452.582,380.877 446.5,384C 445.251,384.74 444.251,384.573 443.5,383.5C 443.334,377.491 443.501,371.491 444,365.5C 450.416,361.375 456.916,357.375 463.5,353.5C 464.086,353.709 464.586,354.043 465,354.5C 465.497,356.81 465.663,359.143 465.5,361.5 Z"/></g>
<g><path style="opacity:0.991" fill="#e37d35" d="M 470.5,359.5 C 470.5,370.833 470.5,382.167 470.5,393.5C 469.834,396.028 469.168,398.694 468.5,401.5C 429.267,424.949 389.6,447.616 349.5,469.5C 349.5,453.5 349.5,437.5 349.5,421.5C 352.634,420.099 355.634,418.432 358.5,416.5C 359.167,421.317 359.834,425.983 360.5,430.5C 360.843,432.225 361.843,432.725 363.5,432C 369.582,428.877 375.415,425.377 381,421.5C 382.404,415.956 382.904,410.29 382.5,404.5C 384.216,402.975 386.216,401.975 388.5,401.5C 387.381,411.248 391.048,414.081 399.5,410C 410.337,403.414 421.337,397.081 432.5,391C 437.767,386.789 440.1,381.289 439.5,374.5C 440.496,374.586 441.329,374.252 442,373.5C 442.179,377.025 442.679,380.359 443.5,383.5C 444.251,384.573 445.251,384.74 446.5,384C 452.582,380.877 458.415,377.377 464,373.5C 465.354,369.637 465.854,365.637 465.5,361.5C 467.05,360.559 468.716,359.893 470.5,359.5 Z"/></g>
<g><path style="opacity:0.987" fill="#544686" d="M 54.5,335.5 C 59.1667,335.5 63.8333,335.5 68.5,335.5C 70.1213,351.241 76.4547,364.741 87.5,376C 101.701,386.643 111.201,383.476 116,366.5C 116.932,355.992 115.098,345.992 110.5,336.5C 114.298,335.517 118.298,335.183 122.5,335.5C 127.06,345.618 129.727,356.285 130.5,367.5C 130.669,375.004 129.336,382.171 126.5,389C 111.17,389.5 95.837,389.667 80.5,389.5C 65.9875,374.471 57.3208,356.471 54.5,335.5 Z"/></g>
<g><path style="opacity:0.986" fill="#493d74" d="M 130.5,367.5 C 138.171,371.333 145.504,375.666 152.5,380.5C 139.683,388.746 126.349,396.246 112.5,403C 99.3465,404.253 88.6799,399.753 80.5,389.5C 95.837,389.667 111.17,389.5 126.5,389C 129.336,382.171 130.669,375.004 130.5,367.5 Z"/></g>
<g><path style="opacity:1" fill="#51417a" d="M 439.5,374.5 C 440.1,381.289 437.767,386.789 432.5,391C 421.337,397.081 410.337,403.414 399.5,410C 391.048,414.081 387.381,411.248 388.5,401.5C 388.33,400.178 388.663,399.011 389.5,398C 405.918,388.374 422.418,378.874 439,369.5C 439.494,371.134 439.66,372.801 439.5,374.5 Z"/></g>
<g><path style="opacity:0.998" fill="#a993e3" d="M 470.5,393.5 C 473.646,394.31 475.313,396.31 475.5,399.5C 475.152,402.019 473.819,403.853 471.5,405C 434.109,426.022 397.109,447.522 360.5,469.5C 356.503,471.997 352.17,473.663 347.5,474.5C 339.5,470.5 331.5,466.5 323.5,462.5C 323.5,462.167 323.5,461.833 323.5,461.5C 324.937,460.275 326.604,459.275 328.5,458.5C 335.515,463.02 342.515,466.687 349.5,469.5C 389.6,447.616 429.267,424.949 468.5,401.5C 469.168,398.694 469.834,396.028 470.5,393.5 Z"/></g>
<g><path style="opacity:1" fill="#e9e2f1" d="M 382.5,404.5 C 382.904,410.29 382.404,415.956 381,421.5C 375.415,425.377 369.582,428.877 363.5,432C 361.843,432.725 360.843,432.225 360.5,430.5C 360.334,424.824 360.501,419.157 361,413.5C 367.416,409.375 373.916,405.375 380.5,401.5C 381.919,402.005 382.585,403.005 382.5,404.5 Z"/></g>
<g><path style="opacity:0.988" fill="#7662bd" d="M 475.5,399.5 C 476.657,408.324 476.824,417.324 476,426.5C 475.727,428.329 474.893,429.829 473.5,431C 435.928,452.756 398.261,474.256 360.5,495.5C 360.5,486.833 360.5,478.167 360.5,469.5C 397.109,447.522 434.109,426.022 471.5,405C 473.819,403.853 475.152,402.019 475.5,399.5 Z"/></g>
<g><path style="opacity:1" fill="#e6e2f4" d="M 302.5,455.5 C 304.208,464.965 303.708,474.299 301,483.5C 294.682,491.314 287.182,492.481 278.5,487C 268.366,478.558 261.366,468.058 257.5,455.5C 256.127,447.441 256.294,439.441 258,431.5C 263.941,420.421 272.108,418.588 282.5,426C 291.786,434.076 298.452,443.909 302.5,455.5 Z"/></g>
<g><path style="opacity:1" fill="#6957a4" d="M 314.5,455.5 C 310.5,455.5 306.5,455.5 302.5,455.5C 298.452,443.909 291.786,434.076 282.5,426C 272.108,418.588 263.941,420.421 258,431.5C 256.294,439.441 256.127,447.441 257.5,455.5C 253.069,455.231 248.735,455.564 244.5,456.5C 242.472,448.302 241.472,439.968 241.5,431.5C 242.293,427.298 243.126,422.965 244,418.5C 246.553,409.28 252.386,403.447 261.5,401C 269.846,400.891 277.513,403.225 284.5,408C 299.672,420.499 309.672,436.332 314.5,455.5 Z"/></g>
<g><path style="opacity:1" fill="#7864be" d="M 272.5,438.5 C 276.599,438.367 280.266,439.533 283.5,442C 290.33,449.158 293.164,457.658 292,467.5C 289.014,473.969 284.514,475.135 278.5,471C 270.748,463.41 267.581,454.243 269,443.5C 269.997,441.677 271.164,440.01 272.5,438.5 Z"/></g>
<g><path style="opacity:1" fill="#b58e4c" d="M 323.5,461.5 C 323.5,461.833 323.5,462.167 323.5,462.5C 323.828,467.875 323.495,473.208 322.5,478.5C 321.893,478.376 321.56,478.043 321.5,477.5C 322.167,472.167 322.833,466.833 323.5,461.5 Z"/></g>
<g><path style="opacity:0.997" fill="#58498d" d="M 360.5,469.5 C 360.5,478.167 360.5,486.833 360.5,495.5C 356.856,498.82 352.522,500.82 347.5,501.5C 347.5,492.5 347.5,483.5 347.5,474.5C 352.17,473.663 356.503,471.997 360.5,469.5 Z"/></g>
<g><path style="opacity:0.994" fill="#544686" d="M 257.5,455.5 C 261.366,468.058 268.366,478.558 278.5,487C 287.182,492.481 294.682,491.314 301,483.5C 303.708,474.299 304.208,464.965 302.5,455.5C 306.5,455.5 310.5,455.5 314.5,455.5C 316.765,462.238 318.098,469.238 318.5,476.5C 318.766,483.671 317.432,490.504 314.5,497C 298.837,497.5 283.17,497.667 267.5,497.5C 256.499,485.845 248.833,472.178 244.5,456.5C 248.735,455.564 253.069,455.231 257.5,455.5 Z"/></g>
<g><path style="opacity:0.988" fill="#483c73" d="M 323.5,462.5 C 331.5,466.5 339.5,470.5 347.5,474.5C 347.5,483.5 347.5,492.5 347.5,501.5C 342.291,499.627 337.291,497.294 332.5,494.5C 321.95,499.938 311.616,505.605 301.5,511.5C 297.167,511.5 292.833,511.5 288.5,511.5C 280.363,508.594 273.363,503.927 267.5,497.5C 283.17,497.667 298.837,497.5 314.5,497C 317.432,490.504 318.766,483.671 318.5,476.5C 319.609,476.557 320.609,476.89 321.5,477.5C 321.56,478.043 321.893,478.376 322.5,478.5C 323.495,473.208 323.828,467.875 323.5,462.5 Z"/></g>
</svg>
