<?xml version="1.0" encoding="UTF-8"?>
<!DOCTYPE svg PUBLIC "-//W3C//DTD SVG 1.1//EN" "http://www.w3.org/Graphics/SVG/1.1/DTD/svg11.dtd">
<svg xmlns="http://www.w3.org/2000/svg" version="1.1" width="512px" height="512px" style="shape-rendering:geometricPrecision; text-rendering:geometricPrecision; image-rendering:optimizeQuality; fill-rule:evenodd; clip-rule:evenodd" xmlns:xlink="http://www.w3.org/1999/xlink">
<g><path style="opacity:0.993" fill="#0544a4" d="M 61.5,41.5 C 190.834,41.3333 320.167,41.5 449.5,42C 478.611,48.4442 497.444,65.9442 506,94.5C 507.642,141.462 507.975,188.462 507,235.5C 501.932,242.868 495.432,244.368 487.5,240C 485.951,238.786 484.785,237.286 484,235.5C 483.952,191.144 483.285,146.81 482,102.5C 476.833,84 465,72.1667 446.5,67C 319.167,66.3333 191.833,66.3333 64.5,67C 46,72.1667 34.1667,84 29,102.5C 27.3735,155.478 27.0402,208.478 28,261.5C 29.9033,284.738 42.07,299.571 64.5,306C 126.145,307.299 187.811,307.966 249.5,308C 256.714,313.096 258.214,319.596 254,327.5C 252.786,329.049 251.286,330.215 249.5,331C 186.833,331.667 124.167,331.667 61.5,331C 30.3333,323.833 11.1667,304.667 4,273.5C 3.33333,215.5 3.33333,157.5 4,99.5C 11.3388,68.3283 30.5054,48.995 61.5,41.5 Z"/></g>
<g><path style="opacity:0.976" fill="#0544a4" d="M 106.5,165.5 C 128.881,165.258 137.048,175.925 131,197.5C 122.347,208.114 111.847,210.28 99.5,204C 87.5,192.333 87.5,180.667 99.5,169C 101.925,167.787 104.259,166.621 106.5,165.5 Z"/></g>
<g><path style="opacity:0.976" fill="#0543a4" d="M 202.5,165.5 C 223.959,165.45 232.126,175.784 227,196.5C 219.189,207.33 209.022,210.164 196.5,205C 186.856,198.063 184.023,188.896 188,177.5C 191.081,171.231 195.914,167.231 202.5,165.5 Z"/></g>
<g><path style="opacity:0.976" fill="#0544a4" d="M 298.5,165.5 C 317.493,164.659 325.993,173.659 324,192.5C 319.344,204.63 310.51,209.464 297.5,207C 287.502,203.833 282.169,196.999 281.5,186.5C 282.472,175.543 288.138,168.543 298.5,165.5 Z"/></g>
<g><path style="opacity:0.975" fill="#0543a4" d="M 393.5,165.5 C 409.255,163.93 418.255,170.93 420.5,186.5C 416.641,205.101 405.641,211.268 387.5,205C 378.121,198.01 375.287,188.843 379,177.5C 382.069,171.235 386.902,167.235 393.5,165.5 Z"/></g>
<g><path style="opacity:0.989" fill="#0544a4" d="M 393.5,255.5 C 399.369,255.048 405.035,255.881 410.5,258C 436.223,274.852 464.557,283.185 495.5,283C 500.645,285.497 503.478,289.663 504,295.5C 512.015,333.702 507.682,370.368 491,405.5C 470.038,440.25 439.538,461.583 399.5,469.5C 348.627,459.644 314.46,430.311 297,381.5C 289.989,355.137 288.656,328.47 293,301.5C 295.055,291.778 300.888,285.611 310.5,283C 325.517,282.189 340.183,279.522 354.5,275C 368.15,269.508 381.15,263.008 393.5,255.5 Z"/></g>
<g><path style="opacity:1" fill="#3aa2f7" d="M 398.5,279.5 C 423.548,296.293 451.215,305.293 481.5,306.5C 487.114,336.475 483.281,365.142 470,392.5C 453.315,419.36 429.649,437.027 399,445.5C 343.046,428.448 314.879,390.615 314.5,332C 314.544,323.441 315.211,314.941 316.5,306.5C 346.617,305.46 373.95,296.46 398.5,279.5 Z"/></g>
</svg>
